<?xml version="1.0" encoding="UTF-8" standalone="no"?>
<svg
   width="242.93mm"
   height="122mm"
   version="1.1"
   viewBox="0 0 242.93 122"
   id="svg6671"
   xmlns="http://www.w3.org/2000/svg"
   xmlns:svg="http://www.w3.org/2000/svg">
  <defs
     id="defs6675" />
  <rect
     style="fill:#ffffff;stroke-width:0.41683;stroke-linecap:round"
     id="rect3203"
     width="242.92999"
     height="122"
     x="0"
     y="0" />
  <g
     transform="translate(-2.8588 -551.07)"
     id="g6669">
    <g
       transform="translate(-135.7 132.81)"
       id="g6555">
      <rect
         x="260.03"
         y="418.79"
         width="120.94"
         height="120.94"
         fill="none"
         stroke="#103149"
         stroke-linecap="square"
         stroke-width="1.0583"
         id="rect6447" />
      <g
         transform="matrix(.26458 0 0 .26458 -44.326 367.88)"
         fill="#103149"
         fill-rule="evenodd"
         id="g6471">
        <g
           stroke-width="1.3477"
           aria-label="NWERC"
           id="g6459">
          <path
             d="m1203 349.01h14.241l25.881 45.369v-45.369h12.654v64.989h-13.58l-26.542-46.163v46.163h-12.654z"
             id="path6449" />
          <path
             d="m1282.5 349.01 8.5976 37.212 1.8518 10.361 1.8959-10.141 7.319-37.433h14.329l7.7158 37.212 1.9841 10.361 1.984-9.9644 8.6858-37.609h13.8l-18.298 64.989h-12.962l-7.8481-38.006-2.2927-12.566-2.2927 12.566-7.8481 38.006h-12.61l-18.43-64.989z"
             id="path6451" />
          <path
             d="m1412 360.52h-34.39v13.8h31.569v11.287h-31.569v16.71h35.978v11.684h-49.249v-64.989h47.662z"
             id="path6453" />
          <path
             d="m1442.9 360.3v17.46h15.388q4.5854 0 6.8781-1.0582 4.0563-1.8518 4.0563-7.319 0-5.9081-3.9241-7.9363-2.2045-1.1464-6.6135-1.1464zm18.606-11.287q6.834 0.13227 10.494 1.6754 3.7036 1.5432 6.2608 4.5413 2.1164 2.4691 3.3509 5.4672 1.2345 2.9981 1.2345 6.834 0 4.6295-2.3368 9.1267-2.3368 4.4531-7.7158 6.3049 4.4972 1.8077 6.349 5.1586 1.8959 3.3068 1.8959 10.141v4.365q0 4.4531 0.3527 6.0404 0.5291 2.5132 2.4691 3.7036v1.6314h-14.947q-0.6173-2.1604-0.8819-3.4831-0.529-2.7336-0.5731-5.5995l-0.088-6.0404q-0.088-6.2168-2.2927-8.289-2.1604-2.0722-8.1567-2.0722h-14.021v25.484h-13.271v-64.989z"
             id="path6455" />
          <path
             d="m1496.9 382.03q0-17.019 9.1267-26.234 7.9363-8.0244 20.193-8.0244 16.402 0 23.985 10.758 4.1886 6.0404 4.4972 12.125h-13.58q-1.3228-4.6736-3.395-7.0545-3.7036-4.2327-10.978-4.2327-7.4072 0-11.684 5.9963-4.2767 5.9522-4.2767 16.887 0 10.934 4.4972 16.402 4.5413 5.4231 11.508 5.4231 7.1426 0 10.89-4.6736 2.0722-2.5132 3.4391-7.5394h13.448q-1.7636 10.626-9.0385 17.283-7.2308 6.6576-18.562 6.6576-14.021 0-22.045-8.9944-8.0245-9.0385-8.0245-24.779z"
             id="path6457" />
        </g>
        <g
           stroke-width="1.3901"
           aria-label="2022"
           id="g6469">
          <path
             d="m1222.8 492.51q0.1819-7.0942 3.0469-12.961 2.774-6.594 13.097-13.961 8.9587-6.4121 11.596-9.1861 4.0473-4.3202 4.0473-9.4589 0-4.1838-2.3192-6.9578-2.3193-2.774-6.6395-2.774-5.9118 0-8.0491 4.4111-1.2279 2.5466-1.4553 8.0946h-12.597q0.3183-8.413 3.0469-13.597 5.1842-9.8682 18.418-9.8682 10.459 0 16.644 5.8209 6.1847 5.7754 6.1847 15.325 0 7.3216-4.3656 13.006-2.865 3.7745-9.4135 8.413l-5.1842 3.6835q-4.8659 3.4562-6.6849 5.0023-1.7736 1.5462-3.0014 3.5926h28.786v11.414z"
             id="path6461" />
          <path
             d="m1325 460.17q0 11.369 1.8645 17.417 1.8645 6.0028 7.6399 6.0028t7.5489-6.0028q1.8191-6.0483 1.8191-17.417 0-11.915-1.8191-17.645-1.7735-5.7299-7.5489-5.7299t-7.6399 5.7299-1.8645 17.645zm9.5044-34.061q12.597 0 17.644 8.8677 5.0933 8.8677 5.0933 25.193 0 16.326-5.0933 25.148-5.0478 8.8223-17.644 8.8223-12.597 0-17.69-8.8223-5.0478-8.8223-5.0478-25.148 0-16.326 5.0478-25.193 5.0932-8.8677 17.69-8.8677z"
             id="path6463" />
          <path
             d="m1400.8 492.51q0.1819-7.0942 3.0468-12.961 2.7741-6.594 13.097-13.961 8.9587-6.4121 11.596-9.1861 4.0473-4.3202 4.0473-9.4589 0-4.1838-2.3192-6.9578-2.3193-2.774-6.6395-2.774-5.9118 0-8.0492 4.4111-1.2278 2.5466-1.4552 8.0946h-12.597q0.3183-8.413 3.0469-13.597 5.1842-9.8682 18.418-9.8682 10.459 0 16.644 5.8209 6.1847 5.7754 6.1847 15.325 0 7.3216-4.3656 13.006-2.865 3.7745-9.4135 8.413l-5.1842 3.6835q-4.8659 3.4562-6.6849 5.0023-1.7736 1.5462-3.0014 3.5926h28.786v11.414z"
             id="path6465" />
          <path
             d="m1489.8 492.51q0.1819-7.0942 3.0468-12.961 2.7741-6.594 13.097-13.961 8.9587-6.4121 11.596-9.1861 4.0473-4.3202 4.0473-9.4589 0-4.1838-2.3192-6.9578-2.3193-2.774-6.6395-2.774-5.9118 0-8.0492 4.4111-1.2278 2.5466-1.4552 8.0946h-12.597q0.3183-8.413 3.0469-13.597 5.1842-9.8682 18.418-9.8682 10.459 0 16.644 5.8209 6.1847 5.7754 6.1847 15.325 0 7.3216-4.3656 13.006-2.865 3.7745-9.4135 8.413l-5.1842 3.6835q-4.8659 3.4562-6.6849 5.0023-1.7736 1.5462-3.0014 3.5926h28.786v11.414z"
             id="path6467" />
        </g>
      </g>
      <g
         fill="#103149"
         id="g6553">
        <g
           transform="matrix(-1.9258 0 0 -1.9258 847.93 447.52)"
           id="g6491">
          <path
             d="m256.81-40.199c-0.22896 0.15251-1.532 0.91862-2.4435-1.5764s-0.62646-3.5854-0.35699-3.7038 0.58963 0.60897 1.2134 1.5416c0.62378 0.93265 1.3623 0.89594 1.7711 1.997 0.40878 1.101 0.045 1.5891-0.18394 1.7416z"
             id="path6473" />
          <path
             d="m260.87-45.099c-0.0104 0.63155-0.28719 2.0221-1.4083 2.042-1.5589 0.02766-4.4493-2.6827-4.3766-3.187 0.0728-0.50432 1.0064 0.27751 2.3737-0.09348 1.3673-0.37099 1.2971-0.53473 2.2866-0.50697 0.98943 0.02776 1.135 1.1139 1.1246 1.7455z"
             id="path6475" />
          <path
             d="m248.21-45.408c-0.0449 0.81239 0.44313 0.87815 0.88406 0.87168 0.44093-0.0065 1.0166-0.55608 1.4648-0.81082s1.3162-0.43809 1.3528-0.72586c0.0363-0.28571-2.1703-0.18673-2.6231-0.12396s-1.0336-0.02343-1.0786 0.78896z"
             id="path6477" />
          <path
             d="m252.59-44.958c0.2434 0.12896-0.37923 0.91134-0.30423 1.7979 0.075 0.88657 0.39903 1.4033 0.18329 1.7991-0.18793 0.34472-0.4515 0.65082-1.3524 0.43582-0.90095-0.21499-1.165-1.2037-0.30583-2.4833s1.5358-1.6784 1.7792-1.5495z"
             id="path6479" />
          <g
             transform="matrix(0 1 1 0 290.36 -289.72)"
             id="g6489">
            <path
               d="m256.81-40.199c-0.22896 0.15251-1.532 0.91862-2.4435-1.5764s-0.62646-3.5854-0.35699-3.7038 0.58963 0.60897 1.2134 1.5416c0.62378 0.93265 1.3623 0.89594 1.7711 1.997 0.40878 1.101 0.045 1.5891-0.18394 1.7416z"
               id="path6481" />
            <path
               d="m260.87-45.099c-0.0104 0.63155-0.28719 2.0221-1.4083 2.042-1.5589 0.02766-4.4493-2.6827-4.3766-3.187 0.0728-0.50432 1.0064 0.27751 2.3737-0.09348 1.3673-0.37099 1.2971-0.53473 2.2866-0.50697 0.98943 0.02776 1.135 1.1139 1.1246 1.7455z"
               id="path6483" />
            <path
               d="m248.21-45.408c-0.0449 0.81239 0.44313 0.87815 0.88406 0.87168 0.44093-0.0065 1.0166-0.55608 1.4648-0.81082s1.3162-0.43809 1.3528-0.72586c0.0363-0.28571-2.1703-0.18673-2.6231-0.12396s-1.0336-0.02343-1.0786 0.78896z"
               id="path6485" />
            <path
               d="m252.59-44.958c0.2434 0.12896-0.37923 0.91134-0.30423 1.7979 0.075 0.88657 0.39903 1.4033 0.18329 1.7991-0.18793 0.34472-0.4515 0.65082-1.3524 0.43582-0.90095-0.21499-1.165-1.2037-0.30583-2.4833s1.5358-1.6784 1.7792-1.5495z"
               id="path6487" />
          </g>
        </g>
        <g
           transform="matrix(1.9258 0 0 -1.9258 -206.93 447.52)"
           id="g6511">
          <path
             d="m256.81-40.199c-0.22896 0.15251-1.532 0.91862-2.4435-1.5764s-0.62646-3.5854-0.35699-3.7038 0.58963 0.60897 1.2134 1.5416c0.62378 0.93265 1.3623 0.89594 1.7711 1.997 0.40878 1.101 0.045 1.5891-0.18394 1.7416z"
             id="path6493" />
          <path
             d="m260.87-45.099c-0.0104 0.63155-0.28719 2.0221-1.4083 2.042-1.5589 0.02766-4.4493-2.6827-4.3766-3.187 0.0728-0.50432 1.0064 0.27751 2.3737-0.09348 1.3673-0.37099 1.2971-0.53473 2.2866-0.50697 0.98943 0.02776 1.135 1.1139 1.1246 1.7455z"
             id="path6495" />
          <path
             d="m248.21-45.408c-0.0449 0.81239 0.44313 0.87815 0.88406 0.87168 0.44093-0.0065 1.0166-0.55608 1.4648-0.81082s1.3162-0.43809 1.3528-0.72586c0.0363-0.28571-2.1703-0.18673-2.6231-0.12396s-1.0336-0.02343-1.0786 0.78896z"
             id="path6497" />
          <path
             d="m252.59-44.958c0.2434 0.12896-0.37923 0.91134-0.30423 1.7979 0.075 0.88657 0.39903 1.4033 0.18329 1.7991-0.18793 0.34472-0.4515 0.65082-1.3524 0.43582-0.90095-0.21499-1.165-1.2037-0.30583-2.4833s1.5358-1.6784 1.7792-1.5495z"
             id="path6499" />
          <g
             transform="matrix(0 1 1 0 290.36 -289.72)"
             id="g6509">
            <path
               d="m256.81-40.199c-0.22896 0.15251-1.532 0.91862-2.4435-1.5764s-0.62646-3.5854-0.35699-3.7038 0.58963 0.60897 1.2134 1.5416c0.62378 0.93265 1.3623 0.89594 1.7711 1.997 0.40878 1.101 0.045 1.5891-0.18394 1.7416z"
               id="path6501" />
            <path
               d="m260.87-45.099c-0.0104 0.63155-0.28719 2.0221-1.4083 2.042-1.5589 0.02766-4.4493-2.6827-4.3766-3.187 0.0728-0.50432 1.0064 0.27751 2.3737-0.09348 1.3673-0.37099 1.2971-0.53473 2.2866-0.50697 0.98943 0.02776 1.135 1.1139 1.1246 1.7455z"
               id="path6503" />
            <path
               d="m248.21-45.408c-0.0449 0.81239 0.44313 0.87815 0.88406 0.87168 0.44093-0.0065 1.0166-0.55608 1.4648-0.81082s1.3162-0.43809 1.3528-0.72586c0.0363-0.28571-2.1703-0.18673-2.6231-0.12396s-1.0336-0.02343-1.0786 0.78896z"
               id="path6505" />
            <path
               d="m252.59-44.958c0.2434 0.12896-0.37923 0.91134-0.30423 1.7979 0.075 0.88657 0.39903 1.4033 0.18329 1.7991-0.18793 0.34472-0.4515 0.65082-1.3524 0.43582-0.90095-0.21499-1.165-1.2037-0.30583-2.4833s1.5358-1.6784 1.7792-1.5495z"
               id="path6507" />
          </g>
        </g>
        <g
           transform="matrix(-1.9258 0 0 1.9258 847.93 511)"
           id="g6531">
          <path
             d="m256.81-40.199c-0.22896 0.15251-1.532 0.91862-2.4435-1.5764s-0.62646-3.5854-0.35699-3.7038 0.58963 0.60897 1.2134 1.5416c0.62378 0.93265 1.3623 0.89594 1.7711 1.997 0.40878 1.101 0.045 1.5891-0.18394 1.7416z"
             id="path6513" />
          <path
             d="m260.87-45.099c-0.0104 0.63155-0.28719 2.0221-1.4083 2.042-1.5589 0.02766-4.4493-2.6827-4.3766-3.187 0.0728-0.50432 1.0064 0.27751 2.3737-0.09348 1.3673-0.37099 1.2971-0.53473 2.2866-0.50697 0.98943 0.02776 1.135 1.1139 1.1246 1.7455z"
             id="path6515" />
          <path
             d="m248.21-45.408c-0.0449 0.81239 0.44313 0.87815 0.88406 0.87168 0.44093-0.0065 1.0166-0.55608 1.4648-0.81082s1.3162-0.43809 1.3528-0.72586c0.0363-0.28571-2.1703-0.18673-2.6231-0.12396s-1.0336-0.02343-1.0786 0.78896z"
             id="path6517" />
          <path
             d="m252.59-44.958c0.2434 0.12896-0.37923 0.91134-0.30423 1.7979 0.075 0.88657 0.39903 1.4033 0.18329 1.7991-0.18793 0.34472-0.4515 0.65082-1.3524 0.43582-0.90095-0.21499-1.165-1.2037-0.30583-2.4833s1.5358-1.6784 1.7792-1.5495z"
             id="path6519" />
          <g
             transform="matrix(0 1 1 0 290.36 -289.72)"
             id="g6529">
            <path
               d="m256.81-40.199c-0.22896 0.15251-1.532 0.91862-2.4435-1.5764s-0.62646-3.5854-0.35699-3.7038 0.58963 0.60897 1.2134 1.5416c0.62378 0.93265 1.3623 0.89594 1.7711 1.997 0.40878 1.101 0.045 1.5891-0.18394 1.7416z"
               id="path6521" />
            <path
               d="m260.87-45.099c-0.0104 0.63155-0.28719 2.0221-1.4083 2.042-1.5589 0.02766-4.4493-2.6827-4.3766-3.187 0.0728-0.50432 1.0064 0.27751 2.3737-0.09348 1.3673-0.37099 1.2971-0.53473 2.2866-0.50697 0.98943 0.02776 1.135 1.1139 1.1246 1.7455z"
               id="path6523" />
            <path
               d="m248.21-45.408c-0.0449 0.81239 0.44313 0.87815 0.88406 0.87168 0.44093-0.0065 1.0166-0.55608 1.4648-0.81082s1.3162-0.43809 1.3528-0.72586c0.0363-0.28571-2.1703-0.18673-2.6231-0.12396s-1.0336-0.02343-1.0786 0.78896z"
               id="path6525" />
            <path
               d="m252.59-44.958c0.2434 0.12896-0.37923 0.91134-0.30423 1.7979 0.075 0.88657 0.39903 1.4033 0.18329 1.7991-0.18793 0.34472-0.4515 0.65082-1.3524 0.43582-0.90095-0.21499-1.165-1.2037-0.30583-2.4833s1.5358-1.6784 1.7792-1.5495z"
               id="path6527" />
          </g>
        </g>
        <g
           transform="matrix(1.9258 0 0 1.9258 -206.93 511)"
           id="g6551">
          <path
             d="m256.81-40.199c-0.22896 0.15251-1.532 0.91862-2.4435-1.5764s-0.62646-3.5854-0.35699-3.7038 0.58963 0.60897 1.2134 1.5416c0.62378 0.93265 1.3623 0.89594 1.7711 1.997 0.40878 1.101 0.045 1.5891-0.18394 1.7416z"
             id="path6533" />
          <path
             d="m260.87-45.099c-0.0104 0.63155-0.28719 2.0221-1.4083 2.042-1.5589 0.02766-4.4493-2.6827-4.3766-3.187 0.0728-0.50432 1.0064 0.27751 2.3737-0.09348 1.3673-0.37099 1.2971-0.53473 2.2866-0.50697 0.98943 0.02776 1.135 1.1139 1.1246 1.7455z"
             id="path6535" />
          <path
             d="m248.21-45.408c-0.0449 0.81239 0.44313 0.87815 0.88406 0.87168 0.44093-0.0065 1.0166-0.55608 1.4648-0.81082s1.3162-0.43809 1.3528-0.72586c0.0363-0.28571-2.1703-0.18673-2.6231-0.12396s-1.0336-0.02343-1.0786 0.78896z"
             id="path6537" />
          <path
             d="m252.59-44.958c0.2434 0.12896-0.37923 0.91134-0.30423 1.7979 0.075 0.88657 0.39903 1.4033 0.18329 1.7991-0.18793 0.34472-0.4515 0.65082-1.3524 0.43582-0.90095-0.21499-1.165-1.2037-0.30583-2.4833s1.5358-1.6784 1.7792-1.5495z"
             id="path6539" />
          <g
             transform="matrix(0 1 1 0 290.36 -289.72)"
             id="g6549">
            <path
               d="m256.81-40.199c-0.22896 0.15251-1.532 0.91862-2.4435-1.5764s-0.62646-3.5854-0.35699-3.7038 0.58963 0.60897 1.2134 1.5416c0.62378 0.93265 1.3623 0.89594 1.7711 1.997 0.40878 1.101 0.045 1.5891-0.18394 1.7416z"
               id="path6541" />
            <path
               d="m260.87-45.099c-0.0104 0.63155-0.28719 2.0221-1.4083 2.042-1.5589 0.02766-4.4493-2.6827-4.3766-3.187 0.0728-0.50432 1.0064 0.27751 2.3737-0.09348 1.3673-0.37099 1.2971-0.53473 2.2866-0.50697 0.98943 0.02776 1.135 1.1139 1.1246 1.7455z"
               id="path6543" />
            <path
               d="m248.21-45.408c-0.0449 0.81239 0.44313 0.87815 0.88406 0.87168 0.44093-0.0065 1.0166-0.55608 1.4648-0.81082s1.3162-0.43809 1.3528-0.72586c0.0363-0.28571-2.1703-0.18673-2.6231-0.12396s-1.0336-0.02343-1.0786 0.78896z"
               id="path6545" />
            <path
               d="m252.59-44.958c0.2434 0.12896-0.37923 0.91134-0.30423 1.7979 0.075 0.88657 0.39903 1.4033 0.18329 1.7991-0.18793 0.34472-0.4515 0.65082-1.3524 0.43582-0.90095-0.21499-1.165-1.2037-0.30583-2.4833s1.5358-1.6784 1.7792-1.5495z"
               id="path6547" />
          </g>
        </g>
      </g>
    </g>
    <g
       transform="translate(-262.78 333.75)"
       id="g6667">
      <rect
         x="266.17"
         y="217.85"
         width="120.94"
         height="120.94"
         fill="none"
         stroke="#103149"
         stroke-linecap="square"
         stroke-width="1.0583"
         id="rect6583" />
      <g
         transform="translate(118 7.9681)"
         stroke="#103149"
         id="g6581">
        <g
           transform="matrix(1.7455 0 0 1.7455 -156.84 -190.63)"
           clip-path="url(#clipPath2829)"
           fill="#103149"
           id="g6577">
          <g
             fill-rule="evenodd"
             stroke="#103149"
             id="g6573">
            <path
               transform="matrix(.26458 0 0 .26458 142.7 239.38)"
               d="m359.84 128.23-207.76 18.333a113.29 113.29 0 0 0 99.982 60.184 113.29 113.29 0 0 0 107.77-78.518z"
               id="path6557" />
            <g
               stroke-linecap="round"
               stroke-width=".26458"
               id="g6569">
              <line
                 x1="207.74"
                 x2="216.03"
                 y1="239.6"
                 y2="264.83"
                 id="line6559" />
              <line
                 x1="207.74"
                 x2="213.11"
                 y1="239.6"
                 y2="261.65"
                 id="line6561" />
              <line
                 x1="207.74"
                 x2="208.62"
                 y1="239.6"
                 y2="264.3"
                 id="line6563" />
              <line
                 x1="207.56"
                 x2="199.54"
                 y1="239.6"
                 y2="262.71"
                 id="line6565" />
              <line
                 x1="207.57"
                 x2="203.24"
                 y1="239.6"
                 y2="266.68"
                 id="line6567" />
            </g>
            <path
               d="m199.52 260.55-6.2893 17.254c6.4248 0.27736 11.193 0.27736 14.304 0 3.111-0.27736 7.339-1.0794 12.684-2.406l-5.1653-14.848c-3.7337-0.88212-6.5099-1.3232-8.3284-1.3232s-4.22 0.44106-7.2044 1.3232z"
               stroke-width=".26458"
               id="path6571" />
          </g>
          <circle
             cx="207.65"
             cy="239.62"
             r=".22402"
             stroke="none"
             id="circle6575" />
        </g>
        <circle
           cx="208.64"
           cy="270.35"
           r="52.319"
           fill="none"
           stroke-linecap="square"
           stroke-width=".75088"
           id="circle6579" />
      </g>
      <g
         transform="translate(-29.263 140.94)"
         fill="#103149"
         stroke-width=".54956"
         id="g6665">
        <g
           transform="matrix(1.9258 0 0 1.9258 -171.53 169.13)"
           id="g6603">
          <path
             d="m256.81-40.199c-0.22896 0.15251-1.532 0.91862-2.4435-1.5764s-0.62646-3.5854-0.35699-3.7038 0.58963 0.60897 1.2134 1.5416c0.62378 0.93265 1.3623 0.89594 1.7711 1.997 0.40878 1.101 0.045 1.5891-0.18394 1.7416z"
             id="path6585" />
          <path
             d="m260.87-45.099c-0.0104 0.63155-0.28719 2.0221-1.4083 2.042-1.5589 0.02766-4.4493-2.6827-4.3766-3.187 0.0728-0.50432 1.0064 0.27751 2.3737-0.09348 1.3673-0.37099 1.2971-0.53473 2.2866-0.50697 0.98943 0.02776 1.135 1.1139 1.1246 1.7455z"
             id="path6587" />
          <path
             d="m248.21-45.408c-0.0449 0.81239 0.44313 0.87815 0.88406 0.87168 0.44093-0.0065 1.0166-0.55608 1.4648-0.81082s1.3162-0.43809 1.3528-0.72586c0.0363-0.28571-2.1703-0.18673-2.6231-0.12396s-1.0336-0.02343-1.0786 0.78896z"
             id="path6589" />
          <path
             d="m252.59-44.958c0.2434 0.12896-0.37923 0.91134-0.30423 1.7979 0.075 0.88657 0.39903 1.4033 0.18329 1.7991-0.18793 0.34472-0.4515 0.65082-1.3524 0.43582-0.90095-0.21499-1.165-1.2037-0.30583-2.4833s1.5358-1.6784 1.7792-1.5495z"
             id="path6591" />
          <g
             transform="matrix(0 1 1 0 290.36 -289.72)"
             id="g6601">
            <path
               d="m256.81-40.199c-0.22896 0.15251-1.532 0.91862-2.4435-1.5764s-0.62646-3.5854-0.35699-3.7038 0.58963 0.60897 1.2134 1.5416c0.62378 0.93265 1.3623 0.89594 1.7711 1.997 0.40878 1.101 0.045 1.5891-0.18394 1.7416z"
               id="path6593" />
            <path
               d="m260.87-45.099c-0.0104 0.63155-0.28719 2.0221-1.4083 2.042-1.5589 0.02766-4.4493-2.6827-4.3766-3.187 0.0728-0.50432 1.0064 0.27751 2.3737-0.09348 1.3673-0.37099 1.2971-0.53473 2.2866-0.50697 0.98943 0.02776 1.135 1.1139 1.1246 1.7455z"
               id="path6595" />
            <path
               d="m248.21-45.408c-0.0449 0.81239 0.44313 0.87815 0.88406 0.87168 0.44093-0.0065 1.0166-0.55608 1.4648-0.81082s1.3162-0.43809 1.3528-0.72586c0.0363-0.28571-2.1703-0.18673-2.6231-0.12396s-1.0336-0.02343-1.0786 0.78896z"
               id="path6597" />
            <path
               d="m252.59-44.958c0.2434 0.12896-0.37923 0.91134-0.30423 1.7979 0.075 0.88657 0.39903 1.4033 0.18329 1.7991-0.18793 0.34472-0.4515 0.65082-1.3524 0.43582-0.90095-0.21499-1.165-1.2037-0.30583-2.4833s1.5358-1.6784 1.7792-1.5495z"
               id="path6599" />
          </g>
        </g>
        <g
           transform="matrix(-1.9258 0 0 1.9258 883.33 169.13)"
           id="g6623">
          <path
             d="m256.81-40.199c-0.22896 0.15251-1.532 0.91862-2.4435-1.5764s-0.62646-3.5854-0.35699-3.7038 0.58963 0.60897 1.2134 1.5416c0.62378 0.93265 1.3623 0.89594 1.7711 1.997 0.40878 1.101 0.045 1.5891-0.18394 1.7416z"
             id="path6605" />
          <path
             d="m260.87-45.099c-0.0104 0.63155-0.28719 2.0221-1.4083 2.042-1.5589 0.02766-4.4493-2.6827-4.3766-3.187 0.0728-0.50432 1.0064 0.27751 2.3737-0.09348 1.3673-0.37099 1.2971-0.53473 2.2866-0.50697 0.98943 0.02776 1.135 1.1139 1.1246 1.7455z"
             id="path6607" />
          <path
             d="m248.21-45.408c-0.0449 0.81239 0.44313 0.87815 0.88406 0.87168 0.44093-0.0065 1.0166-0.55608 1.4648-0.81082s1.3162-0.43809 1.3528-0.72586c0.0363-0.28571-2.1703-0.18673-2.6231-0.12396s-1.0336-0.02343-1.0786 0.78896z"
             id="path6609" />
          <path
             d="m252.59-44.958c0.2434 0.12896-0.37923 0.91134-0.30423 1.7979 0.075 0.88657 0.39903 1.4033 0.18329 1.7991-0.18793 0.34472-0.4515 0.65082-1.3524 0.43582-0.90095-0.21499-1.165-1.2037-0.30583-2.4833s1.5358-1.6784 1.7792-1.5495z"
             id="path6611" />
          <g
             transform="matrix(0 1 1 0 290.36 -289.72)"
             id="g6621">
            <path
               d="m256.81-40.199c-0.22896 0.15251-1.532 0.91862-2.4435-1.5764s-0.62646-3.5854-0.35699-3.7038 0.58963 0.60897 1.2134 1.5416c0.62378 0.93265 1.3623 0.89594 1.7711 1.997 0.40878 1.101 0.045 1.5891-0.18394 1.7416z"
               id="path6613" />
            <path
               d="m260.87-45.099c-0.0104 0.63155-0.28719 2.0221-1.4083 2.042-1.5589 0.02766-4.4493-2.6827-4.3766-3.187 0.0728-0.50432 1.0064 0.27751 2.3737-0.09348 1.3673-0.37099 1.2971-0.53473 2.2866-0.50697 0.98943 0.02776 1.135 1.1139 1.1246 1.7455z"
               id="path6615" />
            <path
               d="m248.21-45.408c-0.0449 0.81239 0.44313 0.87815 0.88406 0.87168 0.44093-0.0065 1.0166-0.55608 1.4648-0.81082s1.3162-0.43809 1.3528-0.72586c0.0363-0.28571-2.1703-0.18673-2.6231-0.12396s-1.0336-0.02343-1.0786 0.78896z"
               id="path6617" />
            <path
               d="m252.59-44.958c0.2434 0.12896-0.37923 0.91134-0.30423 1.7979 0.075 0.88657 0.39903 1.4033 0.18329 1.7991-0.18793 0.34472-0.4515 0.65082-1.3524 0.43582-0.90095-0.21499-1.165-1.2037-0.30583-2.4833s1.5358-1.6784 1.7792-1.5495z"
               id="path6619" />
          </g>
        </g>
        <g
           transform="matrix(1.9258 0 0 -1.9258 -171.53 105.64)"
           id="g6643">
          <path
             d="m256.81-40.199c-0.22896 0.15251-1.532 0.91862-2.4435-1.5764s-0.62646-3.5854-0.35699-3.7038 0.58963 0.60897 1.2134 1.5416c0.62378 0.93265 1.3623 0.89594 1.7711 1.997 0.40878 1.101 0.045 1.5891-0.18394 1.7416z"
             id="path6625" />
          <path
             d="m260.87-45.099c-0.0104 0.63155-0.28719 2.0221-1.4083 2.042-1.5589 0.02766-4.4493-2.6827-4.3766-3.187 0.0728-0.50432 1.0064 0.27751 2.3737-0.09348 1.3673-0.37099 1.2971-0.53473 2.2866-0.50697 0.98943 0.02776 1.135 1.1139 1.1246 1.7455z"
             id="path6627" />
          <path
             d="m248.21-45.408c-0.0449 0.81239 0.44313 0.87815 0.88406 0.87168 0.44093-0.0065 1.0166-0.55608 1.4648-0.81082s1.3162-0.43809 1.3528-0.72586c0.0363-0.28571-2.1703-0.18673-2.6231-0.12396s-1.0336-0.02343-1.0786 0.78896z"
             id="path6629" />
          <path
             d="m252.59-44.958c0.2434 0.12896-0.37923 0.91134-0.30423 1.7979 0.075 0.88657 0.39903 1.4033 0.18329 1.7991-0.18793 0.34472-0.4515 0.65082-1.3524 0.43582-0.90095-0.21499-1.165-1.2037-0.30583-2.4833s1.5358-1.6784 1.7792-1.5495z"
             id="path6631" />
          <g
             transform="matrix(0 1 1 0 290.36 -289.72)"
             id="g6641">
            <path
               d="m256.81-40.199c-0.22896 0.15251-1.532 0.91862-2.4435-1.5764s-0.62646-3.5854-0.35699-3.7038 0.58963 0.60897 1.2134 1.5416c0.62378 0.93265 1.3623 0.89594 1.7711 1.997 0.40878 1.101 0.045 1.5891-0.18394 1.7416z"
               id="path6633" />
            <path
               d="m260.87-45.099c-0.0104 0.63155-0.28719 2.0221-1.4083 2.042-1.5589 0.02766-4.4493-2.6827-4.3766-3.187 0.0728-0.50432 1.0064 0.27751 2.3737-0.09348 1.3673-0.37099 1.2971-0.53473 2.2866-0.50697 0.98943 0.02776 1.135 1.1139 1.1246 1.7455z"
               id="path6635" />
            <path
               d="m248.21-45.408c-0.0449 0.81239 0.44313 0.87815 0.88406 0.87168 0.44093-0.0065 1.0166-0.55608 1.4648-0.81082s1.3162-0.43809 1.3528-0.72586c0.0363-0.28571-2.1703-0.18673-2.6231-0.12396s-1.0336-0.02343-1.0786 0.78896z"
               id="path6637" />
            <path
               d="m252.59-44.958c0.2434 0.12896-0.37923 0.91134-0.30423 1.7979 0.075 0.88657 0.39903 1.4033 0.18329 1.7991-0.18793 0.34472-0.4515 0.65082-1.3524 0.43582-0.90095-0.21499-1.165-1.2037-0.30583-2.4833s1.5358-1.6784 1.7792-1.5495z"
               id="path6639" />
          </g>
        </g>
        <g
           transform="matrix(-1.9258 0 0 -1.9258 883.33 105.64)"
           id="g6663">
          <path
             d="m256.81-40.199c-0.22896 0.15251-1.532 0.91862-2.4435-1.5764s-0.62646-3.5854-0.35699-3.7038 0.58963 0.60897 1.2134 1.5416c0.62378 0.93265 1.3623 0.89594 1.7711 1.997 0.40878 1.101 0.045 1.5891-0.18394 1.7416z"
             id="path6645" />
          <path
             d="m260.87-45.099c-0.0104 0.63155-0.28719 2.0221-1.4083 2.042-1.5589 0.02766-4.4493-2.6827-4.3766-3.187 0.0728-0.50432 1.0064 0.27751 2.3737-0.09348 1.3673-0.37099 1.2971-0.53473 2.2866-0.50697 0.98943 0.02776 1.135 1.1139 1.1246 1.7455z"
             id="path6647" />
          <path
             d="m248.21-45.408c-0.0449 0.81239 0.44313 0.87815 0.88406 0.87168 0.44093-0.0065 1.0166-0.55608 1.4648-0.81082s1.3162-0.43809 1.3528-0.72586c0.0363-0.28571-2.1703-0.18673-2.6231-0.12396s-1.0336-0.02343-1.0786 0.78896z"
             id="path6649" />
          <path
             d="m252.59-44.958c0.2434 0.12896-0.37923 0.91134-0.30423 1.7979 0.075 0.88657 0.39903 1.4033 0.18329 1.7991-0.18793 0.34472-0.4515 0.65082-1.3524 0.43582-0.90095-0.21499-1.165-1.2037-0.30583-2.4833s1.5358-1.6784 1.7792-1.5495z"
             id="path6651" />
          <g
             transform="matrix(0 1 1 0 290.36 -289.72)"
             id="g6661">
            <path
               d="m256.81-40.199c-0.22896 0.15251-1.532 0.91862-2.4435-1.5764s-0.62646-3.5854-0.35699-3.7038 0.58963 0.60897 1.2134 1.5416c0.62378 0.93265 1.3623 0.89594 1.7711 1.997 0.40878 1.101 0.045 1.5891-0.18394 1.7416z"
               id="path6653" />
            <path
               d="m260.87-45.099c-0.0104 0.63155-0.28719 2.0221-1.4083 2.042-1.5589 0.02766-4.4493-2.6827-4.3766-3.187 0.0728-0.50432 1.0064 0.27751 2.3737-0.09348 1.3673-0.37099 1.2971-0.53473 2.2866-0.50697 0.98943 0.02776 1.135 1.1139 1.1246 1.7455z"
               id="path6655" />
            <path
               d="m248.21-45.408c-0.0449 0.81239 0.44313 0.87815 0.88406 0.87168 0.44093-0.0065 1.0166-0.55608 1.4648-0.81082s1.3162-0.43809 1.3528-0.72586c0.0363-0.28571-2.1703-0.18673-2.6231-0.12396s-1.0336-0.02343-1.0786 0.78896z"
               id="path6657" />
            <path
               d="m252.59-44.958c0.2434 0.12896-0.37923 0.91134-0.30423 1.7979 0.075 0.88657 0.39903 1.4033 0.18329 1.7991-0.18793 0.34472-0.4515 0.65082-1.3524 0.43582-0.90095-0.21499-1.165-1.2037-0.30583-2.4833s1.5358-1.6784 1.7792-1.5495z"
               id="path6659" />
          </g>
        </g>
      </g>
    </g>
  </g>
</svg>
